<svg xmlns="http://www.w3.org/2000/svg" xmlns:xlink="http://www.w3.org/1999/xlink" width="500" zoomAndPan="magnify" viewBox="0 0 375 374.999991" height="500" preserveAspectRatio="xMidYMid meet" version="1.0"><defs><g/><clipPath id="06be1e693f"><path d="M 114.808594 184.464844 L 251.292969 184.464844 L 251.292969 226.855469 L 114.808594 226.855469 Z M 114.808594 184.464844 " clip-rule="nonzero"/></clipPath><clipPath id="f91aea26a7"><path d="M 115.082031 134.785156 L 261.761719 134.785156 L 261.761719 219.40625 L 115.082031 219.40625 Z M 115.082031 134.785156 " clip-rule="nonzero"/></clipPath><clipPath id="5457d834a7"><path d="M 203 71.171875 L 228 71.171875 L 228 194 L 203 194 Z M 203 71.171875 " clip-rule="nonzero"/></clipPath><clipPath id="1e6d437bcf"><path d="M 137 80 L 194 80 L 194 127 L 137 127 Z M 137 80 " clip-rule="nonzero"/></clipPath><clipPath id="9af5a958fc"><path d="M 114.40625 67.960938 L 193.640625 80.667969 L 180.933594 159.90625 L 101.695312 147.199219 Z M 114.40625 67.960938 " clip-rule="nonzero"/></clipPath><clipPath id="c41440a102"><path d="M 114.40625 67.960938 L 193.640625 80.667969 L 180.933594 159.90625 L 101.695312 147.199219 Z M 114.40625 67.960938 " clip-rule="nonzero"/></clipPath><clipPath id="10b47afa15"><path d="M 101 109 L 151 109 L 151 147 L 101 147 Z M 101 109 " clip-rule="nonzero"/></clipPath><clipPath id="11fc5bdf87"><path d="M 114.40625 67.960938 L 193.640625 80.667969 L 180.933594 159.90625 L 101.695312 147.199219 Z M 114.40625 67.960938 " clip-rule="nonzero"/></clipPath><clipPath id="8ffdf9a747"><path d="M 114.40625 67.960938 L 193.640625 80.667969 L 180.933594 159.90625 L 101.695312 147.199219 Z M 114.40625 67.960938 " clip-rule="nonzero"/></clipPath><clipPath id="9fd58866e5"><path d="M 146 106 L 156 106 L 156 117 L 146 117 Z M 146 106 " clip-rule="nonzero"/></clipPath><clipPath id="b518bf6f34"><path d="M 114.40625 67.960938 L 193.640625 80.667969 L 180.933594 159.90625 L 101.695312 147.199219 Z M 114.40625 67.960938 " clip-rule="nonzero"/></clipPath><clipPath id="da800513aa"><path d="M 114.40625 67.960938 L 193.640625 80.667969 L 180.933594 159.90625 L 101.695312 147.199219 Z M 114.40625 67.960938 " clip-rule="nonzero"/></clipPath></defs><rect x="-37.5" width="450" fill="#ffffff" y="-37.499999" height="449.999989" fill-opacity="1"/><rect x="-37.5" width="450" fill="#ffffff" y="-37.499999" height="449.999989" fill-opacity="1"/><g clip-path="url(#06be1e693f)"><path fill="#1a3c8d" d="M 251.140625 184.664062 C 237.988281 199.160156 214.007812 220.402344 184.523438 223.1875 C 139.230469 227.460938 114.808594 185.183594 114.808594 185.183594 C 114.808594 185.183594 136.980469 228.683594 182.433594 226.792969 C 212.023438 225.5625 237.085938 205.605469 250.980469 191.824219 L 251.140625 184.664062 " fill-opacity="1" fill-rule="nonzero"/></g><g clip-path="url(#f91aea26a7)"><path fill="#1a3c8d" d="M 258.9375 167.082031 L 254.890625 134.976562 C 254.890625 134.976562 250.09375 148.085938 240.117188 163.203125 C 229.800781 178.832031 213.953125 196.605469 192.128906 204.261719 C 149.199219 219.324219 115.308594 184.179688 115.308594 184.179688 C 115.308594 184.179688 141.785156 225.203125 186.8125 218.703125 C 216.125 214.472656 239.03125 192.074219 251.453125 176.949219 L 261.761719 189.453125 L 258.9375 167.082031 " fill-opacity="1" fill-rule="nonzero"/></g><path fill="#0c76bd" d="M 166.773438 148.53125 L 143.175781 161.976562 L 143.175781 200.265625 C 150.152344 202.753906 158.136719 204.5625 166.773438 204.683594 L 166.773438 148.53125 " fill-opacity="1" fill-rule="nonzero"/><path fill="#ef5c21" d="M 196.898438 197.796875 L 196.898438 109.757812 L 173.300781 125.378906 L 173.300781 204.445312 C 179.699219 203.898438 186.378906 202.367188 193.222656 199.480469 C 194.472656 198.953125 195.695312 198.390625 196.898438 197.796875 " fill-opacity="1" fill-rule="nonzero"/><g clip-path="url(#5457d834a7)"><path fill="#0c76bd" d="M 227.527344 171.992188 L 227.527344 71.183594 L 203.929688 85.296875 L 203.929688 193.847656 C 213.292969 187.910156 221.113281 180.140625 227.527344 171.992188 " fill-opacity="1" fill-rule="nonzero"/></g><g clip-path="url(#1e6d437bcf)"><g clip-path="url(#9af5a958fc)"><g clip-path="url(#c41440a102)"><path fill="#1ca5e9" d="M 173.421875 98.160156 C 172.292969 98.972656 170.722656 98.722656 169.910156 97.597656 C 169.09375 96.472656 169.347656 94.898438 170.472656 94.085938 C 171.597656 93.269531 173.167969 93.523438 173.984375 94.648438 C 174.796875 95.773438 174.546875 97.347656 173.421875 98.160156 Z M 193.363281 80.625 C 193.359375 80.628906 171.726562 88.1875 164.609375 93.335938 C 163.347656 94.25 160.863281 96.160156 158.183594 98.316406 C 148.042969 90.3125 137.488281 102.183594 137.488281 102.183594 C 144.898438 96.820312 149.878906 102.214844 151.289062 104.089844 C 151.082031 104.273438 150.882812 104.453125 150.691406 104.628906 L 153.953125 109.140625 L 157.21875 113.652344 C 157.449219 113.523438 157.679688 113.390625 157.917969 113.25 C 159.257812 115.179688 162.824219 121.59375 155.417969 126.957031 C 155.417969 126.957031 169.988281 120.644531 165.558594 108.511719 C 168.445312 106.636719 171.035156 104.875 172.296875 103.960938 C 179.414062 98.8125 193.359375 80.628906 193.363281 80.625 " fill-opacity="1" fill-rule="nonzero"/></g></g></g><g clip-path="url(#10b47afa15)"><g clip-path="url(#11fc5bdf87)"><g clip-path="url(#8ffdf9a747)"><path fill="#ef5c21" d="M 140.28125 112.332031 C 134.386719 116.597656 101.742188 146.921875 101.742188 146.921875 C 101.742188 146.921875 140.753906 125.394531 146.648438 121.128906 C 148.191406 120.015625 149.558594 118.816406 150.707031 117.617188 L 144.886719 109.574219 C 143.386719 110.289062 141.824219 111.214844 140.28125 112.332031 " fill-opacity="1" fill-rule="nonzero"/></g></g></g><g clip-path="url(#9fd58866e5)"><g clip-path="url(#b518bf6f34)"><g clip-path="url(#da800513aa)"><path fill="#1ca5e9" d="M 148.53125 106.191406 C 148.117188 106.582031 146.898438 107.730469 146.585938 108.054688 L 152.679688 116.476562 C 153.085938 116.285156 154.558594 115.484375 155.058594 115.214844 L 151.792969 110.703125 L 148.53125 106.191406 " fill-opacity="1" fill-rule="nonzero"/></g></g></g><g fill="#0038a8" fill-opacity="1"><g transform="translate(49.114515, 257.788605)"><g><path d="M 9.46875 0.5 C 7.894531 0.5 6.421875 0.375 5.046875 0.125 C 3.679688 -0.125 2.648438 -0.375 1.953125 -0.625 L 1.234375 -5.4375 C 1.796875 -5.238281 2.507812 -5.03125 3.375 -4.8125 C 4.238281 -4.59375 5.171875 -4.410156 6.171875 -4.265625 C 7.171875 -4.117188 8.15625 -4.046875 9.125 -4.046875 C 10.46875 -4.046875 11.40625 -4.25 11.9375 -4.65625 C 12.476562 -5.070312 12.75 -5.625 12.75 -6.3125 C 12.75 -6.925781 12.546875 -7.398438 12.140625 -7.734375 C 11.734375 -8.066406 11.035156 -8.351562 10.046875 -8.59375 L 6.46875 -9.46875 C 4.726562 -9.894531 3.414062 -10.613281 2.53125 -11.625 C 1.644531 -12.632812 1.203125 -14.066406 1.203125 -15.921875 C 1.203125 -17.960938 1.878906 -19.585938 3.234375 -20.796875 C 4.597656 -22.003906 6.726562 -22.609375 9.625 -22.609375 C 11.207031 -22.609375 12.644531 -22.492188 13.9375 -22.265625 C 15.238281 -22.035156 16.179688 -21.800781 16.765625 -21.5625 L 17.015625 -16.890625 C 16.535156 -17.054688 15.921875 -17.234375 15.171875 -17.421875 C 14.421875 -17.617188 13.601562 -17.78125 12.71875 -17.90625 C 11.84375 -18.03125 10.960938 -18.09375 10.078125 -18.09375 C 8.785156 -18.09375 7.890625 -17.898438 7.390625 -17.515625 C 6.898438 -17.140625 6.65625 -16.648438 6.65625 -16.046875 C 6.65625 -15.410156 6.859375 -14.914062 7.265625 -14.5625 C 7.679688 -14.21875 8.394531 -13.921875 9.40625 -13.671875 L 12.859375 -12.859375 C 14.597656 -12.429688 15.929688 -11.734375 16.859375 -10.765625 C 17.785156 -9.796875 18.25 -8.34375 18.25 -6.40625 C 18.25 -4.28125 17.546875 -2.597656 16.140625 -1.359375 C 14.742188 -0.117188 12.519531 0.5 9.46875 0.5 Z M 9.46875 0.5 "/></g></g></g><g fill="#0038a8" fill-opacity="1"><g transform="translate(67.425129, 257.788605)"><g><path d="M 17.625 -22.109375 L 17.625 -17.40625 L 11.78125 -17.40625 L 11.78125 0 L 6.40625 0 L 6.40625 -17.40625 L 0.5625 -17.40625 L 0.5625 -22.109375 Z M 17.625 -22.109375 "/></g></g></g><g fill="#0038a8" fill-opacity="1"><g transform="translate(84.820205, 257.788605)"><g><path d="M 15.859375 0 L 14.5 -4.296875 L 6.859375 -4.296875 L 5.46875 0 L -0.03125 0 L 8.078125 -22.109375 L 13.359375 -22.109375 L 21.46875 0 Z M 8.140625 -8.4375 L 13.171875 -8.4375 L 10.640625 -16.265625 Z M 8.140625 -8.4375 "/></g></g></g><g fill="#0038a8" fill-opacity="1"><g transform="translate(105.49859, 257.788605)"><g><path d="M 20.40625 0 L 14.5625 0 L 10.546875 -7.921875 L 7.578125 -7.921875 L 7.578125 0 L 2.234375 0 L 2.234375 -22.109375 L 11.34375 -22.109375 C 14.132812 -22.109375 16.203125 -21.488281 17.546875 -20.25 C 18.898438 -19.019531 19.578125 -17.25 19.578125 -14.9375 C 19.578125 -11.800781 18.289062 -9.71875 15.71875 -8.6875 Z M 7.578125 -17.71875 L 7.578125 -12.1875 L 11.109375 -12.1875 C 13.191406 -12.1875 14.234375 -13.101562 14.234375 -14.9375 C 14.234375 -16.789062 13.191406 -17.71875 11.109375 -17.71875 Z M 7.578125 -17.71875 "/></g></g></g><g fill="#0038a8" fill-opacity="1"><g transform="translate(125.829704, 257.788605)"><g><path d="M 17.625 -22.109375 L 17.625 -17.40625 L 11.78125 -17.40625 L 11.78125 0 L 6.40625 0 L 6.40625 -17.40625 L 0.5625 -17.40625 L 0.5625 -22.109375 Z M 17.625 -22.109375 "/></g></g></g><g fill="#0038a8" fill-opacity="1"><g transform="translate(143.22478, 257.788605)"><g><path d="M 10.671875 0.5 C 7.765625 0.5 5.597656 -0.195312 4.171875 -1.59375 C 2.753906 -2.988281 2.046875 -5.171875 2.046875 -8.140625 L 2.046875 -22.109375 L 7.421875 -22.109375 L 7.421875 -8.140625 C 7.421875 -6.734375 7.691406 -5.726562 8.234375 -5.125 C 8.785156 -4.53125 9.597656 -4.234375 10.671875 -4.234375 C 11.722656 -4.234375 12.523438 -4.53125 13.078125 -5.125 C 13.640625 -5.726562 13.921875 -6.734375 13.921875 -8.140625 L 13.921875 -22.109375 L 19.296875 -22.109375 L 19.296875 -8.140625 C 19.296875 -5.171875 18.582031 -2.988281 17.15625 -1.59375 C 15.738281 -0.195312 13.578125 0.5 10.671875 0.5 Z M 10.671875 0.5 "/></g></g></g><g fill="#0038a8" fill-opacity="1"><g transform="translate(163.776892, 257.788605)"><g><path d="M 2.234375 0 L 2.234375 -22.109375 L 11.40625 -22.109375 C 14.15625 -22.109375 16.203125 -21.457031 17.546875 -20.15625 C 18.898438 -18.863281 19.578125 -17.0625 19.578125 -14.75 C 19.578125 -12.457031 18.898438 -10.660156 17.546875 -9.359375 C 16.203125 -8.066406 14.15625 -7.421875 11.40625 -7.421875 L 7.546875 -7.421875 L 7.546875 0 Z M 7.546875 -11.8125 L 11.171875 -11.8125 C 12.203125 -11.8125 12.96875 -12.066406 13.46875 -12.578125 C 13.976562 -13.097656 14.234375 -13.820312 14.234375 -14.75 C 14.234375 -15.675781 13.976562 -16.398438 13.46875 -16.921875 C 12.96875 -17.453125 12.203125 -17.71875 11.171875 -17.71875 L 7.546875 -17.71875 Z M 7.546875 -11.8125 "/></g></g></g><g fill="#0038a8" fill-opacity="1"><g transform="translate(183.318753, 257.788605)"><g/></g></g><g fill="#0038a8" fill-opacity="1"><g transform="translate(189.190659, 257.788605)"><g><path d="M 10.953125 0.5 C 7.691406 0.5 5.253906 -0.445312 3.640625 -2.34375 C 2.035156 -4.25 1.234375 -7.148438 1.234375 -11.046875 C 1.234375 -14.941406 2.035156 -17.84375 3.640625 -19.75 C 5.253906 -21.65625 7.691406 -22.609375 10.953125 -22.609375 C 12.066406 -22.609375 13.109375 -22.484375 14.078125 -22.234375 C 15.046875 -21.984375 15.773438 -21.726562 16.265625 -21.46875 L 16.546875 -16.734375 C 16.085938 -16.984375 15.410156 -17.242188 14.515625 -17.515625 C 13.617188 -17.796875 12.675781 -17.9375 11.6875 -17.9375 C 9.9375 -17.9375 8.664062 -17.414062 7.875 -16.375 C 7.082031 -15.332031 6.6875 -13.554688 6.6875 -11.046875 C 6.6875 -8.546875 7.082031 -6.773438 7.875 -5.734375 C 8.664062 -4.691406 9.9375 -4.171875 11.6875 -4.171875 C 12.757812 -4.171875 13.78125 -4.316406 14.75 -4.609375 C 15.71875 -4.898438 16.460938 -5.1875 16.984375 -5.46875 L 16.265625 -0.5625 C 15.773438 -0.332031 15.046875 -0.0976562 14.078125 0.140625 C 13.109375 0.378906 12.066406 0.5 10.953125 0.5 Z M 10.953125 0.5 "/></g></g></g><g fill="#0038a8" fill-opacity="1"><g transform="translate(206.3016, 257.788605)"><g><path d="M 10.609375 0.5 C 8.523438 0.5 6.789062 0.117188 5.40625 -0.640625 C 4.03125 -1.410156 3 -2.644531 2.3125 -4.34375 C 1.632812 -6.039062 1.296875 -8.273438 1.296875 -11.046875 C 1.296875 -13.828125 1.632812 -16.066406 2.3125 -17.765625 C 3 -19.460938 4.03125 -20.691406 5.40625 -21.453125 C 6.789062 -22.222656 8.523438 -22.609375 10.609375 -22.609375 C 12.710938 -22.609375 14.445312 -22.222656 15.8125 -21.453125 C 17.1875 -20.691406 18.210938 -19.460938 18.890625 -17.765625 C 19.578125 -16.066406 19.921875 -13.828125 19.921875 -11.046875 C 19.921875 -8.273438 19.578125 -6.039062 18.890625 -4.34375 C 18.210938 -2.644531 17.1875 -1.410156 15.8125 -0.640625 C 14.445312 0.117188 12.710938 0.5 10.609375 0.5 Z M 10.609375 -4.109375 C 11.472656 -4.109375 12.1875 -4.304688 12.75 -4.703125 C 13.320312 -5.109375 13.753906 -5.8125 14.046875 -6.8125 C 14.347656 -7.8125 14.5 -9.222656 14.5 -11.046875 C 14.5 -12.898438 14.347656 -14.328125 14.046875 -15.328125 C 13.753906 -16.328125 13.320312 -17.019531 12.75 -17.40625 C 12.1875 -17.800781 11.472656 -18 10.609375 -18 C 9.742188 -18 9.023438 -17.800781 8.453125 -17.40625 C 7.890625 -17.019531 7.460938 -16.328125 7.171875 -15.328125 C 6.890625 -14.328125 6.75 -12.898438 6.75 -11.046875 C 6.75 -9.222656 6.890625 -7.8125 7.171875 -6.8125 C 7.460938 -5.8125 7.890625 -5.109375 8.453125 -4.703125 C 9.023438 -4.304688 9.742188 -4.109375 10.609375 -4.109375 Z M 10.609375 -4.109375 "/></g></g></g><g fill="#0038a8" fill-opacity="1"><g transform="translate(226.727426, 257.788605)"><g><path d="M 10.671875 0.5 C 7.765625 0.5 5.597656 -0.195312 4.171875 -1.59375 C 2.753906 -2.988281 2.046875 -5.171875 2.046875 -8.140625 L 2.046875 -22.109375 L 7.421875 -22.109375 L 7.421875 -8.140625 C 7.421875 -6.734375 7.691406 -5.726562 8.234375 -5.125 C 8.785156 -4.53125 9.597656 -4.234375 10.671875 -4.234375 C 11.722656 -4.234375 12.523438 -4.53125 13.078125 -5.125 C 13.640625 -5.726562 13.921875 -6.734375 13.921875 -8.140625 L 13.921875 -22.109375 L 19.296875 -22.109375 L 19.296875 -8.140625 C 19.296875 -5.171875 18.582031 -2.988281 17.15625 -1.59375 C 15.738281 -0.195312 13.578125 0.5 10.671875 0.5 Z M 10.671875 0.5 "/></g></g></g><g fill="#0038a8" fill-opacity="1"><g transform="translate(247.279526, 257.788605)"><g><path d="M 15.3125 -22.109375 L 20.171875 -22.109375 L 20.171875 0 L 15.59375 0 L 7.140625 -13.453125 L 7.140625 0 L 2.234375 0 L 2.234375 -22.109375 L 6.859375 -22.109375 L 15.3125 -8.6875 Z M 15.3125 -22.109375 "/></g></g></g><g fill="#0038a8" fill-opacity="1"><g transform="translate(268.905036, 257.788605)"><g><path d="M 17.625 -22.109375 L 17.625 -17.40625 L 11.78125 -17.40625 L 11.78125 0 L 6.40625 0 L 6.40625 -17.40625 L 0.5625 -17.40625 L 0.5625 -22.109375 Z M 17.625 -22.109375 "/></g></g></g><g fill="#0038a8" fill-opacity="1"><g transform="translate(286.300123, 257.788605)"><g><path d="M 2.234375 0 L 2.234375 -22.109375 L 17.46875 -22.109375 L 17.71875 -17.65625 L 7.609375 -17.65625 L 7.609375 -13.390625 L 16.484375 -13.390625 L 16.484375 -8.90625 L 7.609375 -8.90625 L 7.609375 -4.453125 L 18.09375 -4.453125 L 17.375 0 Z M 2.234375 0 "/></g></g></g><g fill="#0038a8" fill-opacity="1"><g transform="translate(304.737012, 257.788605)"><g><path d="M 20.40625 0 L 14.5625 0 L 10.546875 -7.921875 L 7.578125 -7.921875 L 7.578125 0 L 2.234375 0 L 2.234375 -22.109375 L 11.34375 -22.109375 C 14.132812 -22.109375 16.203125 -21.488281 17.546875 -20.25 C 18.898438 -19.019531 19.578125 -17.25 19.578125 -14.9375 C 19.578125 -11.800781 18.289062 -9.71875 15.71875 -8.6875 Z M 7.578125 -17.71875 L 7.578125 -12.1875 L 11.109375 -12.1875 C 13.191406 -12.1875 14.234375 -13.101562 14.234375 -14.9375 C 14.234375 -16.789062 13.191406 -17.71875 11.109375 -17.71875 Z M 7.578125 -17.71875 "/></g></g></g><g fill="#cd430c" fill-opacity="1"><g transform="translate(82.802823, 285.118928)"><g><path d="M 9.625 -9.296875 L 9.625 0 L 7.484375 0 L 7.484375 -3.8125 L 3.25 -3.8125 L 3.25 0 L 1.109375 0 L 1.109375 -9.296875 L 3.25 -9.296875 L 3.25 -5.625 L 7.484375 -5.625 L 7.484375 -9.296875 Z M 9.625 -9.296875 "/></g></g></g><g fill="#cd430c" fill-opacity="1"><g transform="translate(96.921169, 285.118928)"><g><path d="M 8.296875 -1.734375 L 8.296875 0 L 1.109375 0 L 1.109375 -9.296875 L 8.125 -9.296875 L 8.125 -7.578125 L 3.234375 -7.578125 L 3.234375 -5.546875 L 7.5625 -5.546875 L 7.5625 -3.875 L 3.234375 -3.875 L 3.234375 -1.734375 Z M 8.296875 -1.734375 "/></g></g></g><g fill="#cd430c" fill-opacity="1"><g transform="translate(109.222114, 285.118928)"><g><path d="M 1.109375 -9.296875 L 3.25 -9.296875 L 3.25 -1.75 L 7.921875 -1.75 L 7.921875 0 L 1.109375 0 Z M 1.109375 -9.296875 "/></g></g></g><g fill="#cd430c" fill-opacity="1"><g transform="translate(120.634264, 285.118928)"><g><path d="M 5.125 -9.296875 C 5.945312 -9.296875 6.660156 -9.15625 7.265625 -8.875 C 7.878906 -8.601562 8.347656 -8.210938 8.671875 -7.703125 C 9.003906 -7.203125 9.171875 -6.609375 9.171875 -5.921875 C 9.171875 -5.242188 9.003906 -4.648438 8.671875 -4.140625 C 8.347656 -3.628906 7.878906 -3.238281 7.265625 -2.96875 C 6.660156 -2.695312 5.945312 -2.5625 5.125 -2.5625 L 3.25 -2.5625 L 3.25 0 L 1.109375 0 L 1.109375 -9.296875 Z M 5 -4.3125 C 5.65625 -4.3125 6.148438 -4.453125 6.484375 -4.734375 C 6.816406 -5.015625 6.984375 -5.410156 6.984375 -5.921875 C 6.984375 -6.441406 6.816406 -6.84375 6.484375 -7.125 C 6.148438 -7.40625 5.65625 -7.546875 5 -7.546875 L 3.25 -7.546875 L 3.25 -4.3125 Z M 5 -4.3125 "/></g></g></g><g fill="#cd430c" fill-opacity="1"><g transform="translate(133.74442, 285.118928)"><g/></g></g><g fill="#cd430c" fill-opacity="1"><g transform="translate(140.898293, 285.118928)"><g><path d="M 7.921875 -4.828125 C 8.453125 -4.660156 8.867188 -4.378906 9.171875 -3.984375 C 9.472656 -3.597656 9.625 -3.113281 9.625 -2.53125 C 9.625 -1.71875 9.304688 -1.09375 8.671875 -0.65625 C 8.046875 -0.21875 7.125 0 5.90625 0 L 1.109375 0 L 1.109375 -9.296875 L 5.640625 -9.296875 C 6.773438 -9.296875 7.644531 -9.078125 8.25 -8.640625 C 8.863281 -8.210938 9.171875 -7.625 9.171875 -6.875 C 9.171875 -6.425781 9.0625 -6.023438 8.84375 -5.671875 C 8.625 -5.316406 8.316406 -5.035156 7.921875 -4.828125 Z M 3.234375 -7.671875 L 3.234375 -5.484375 L 5.375 -5.484375 C 5.90625 -5.484375 6.304688 -5.578125 6.578125 -5.765625 C 6.859375 -5.953125 7 -6.226562 7 -6.59375 C 7 -6.945312 6.859375 -7.210938 6.578125 -7.390625 C 6.304688 -7.578125 5.90625 -7.671875 5.375 -7.671875 Z M 5.75 -1.625 C 6.3125 -1.625 6.738281 -1.710938 7.03125 -1.890625 C 7.320312 -2.078125 7.46875 -2.367188 7.46875 -2.765625 C 7.46875 -3.535156 6.894531 -3.921875 5.75 -3.921875 L 3.234375 -3.921875 L 3.234375 -1.625 Z M 5.75 -1.625 "/></g></g></g><g fill="#cd430c" fill-opacity="1"><g transform="translate(154.446209, 285.118928)"><g><path d="M 5.234375 0.15625 C 3.898438 0.15625 2.863281 -0.207031 2.125 -0.9375 C 1.382812 -1.675781 1.015625 -2.726562 1.015625 -4.09375 L 1.015625 -9.296875 L 3.171875 -9.296875 L 3.171875 -4.171875 C 3.171875 -2.503906 3.863281 -1.671875 5.25 -1.671875 C 5.914062 -1.671875 6.425781 -1.867188 6.78125 -2.265625 C 7.132812 -2.671875 7.3125 -3.304688 7.3125 -4.171875 L 7.3125 -9.296875 L 9.4375 -9.296875 L 9.4375 -4.09375 C 9.4375 -2.726562 9.066406 -1.675781 8.328125 -0.9375 C 7.585938 -0.207031 6.554688 0.15625 5.234375 0.15625 Z M 5.234375 0.15625 "/></g></g></g><g fill="#cd430c" fill-opacity="1"><g transform="translate(168.299235, 285.118928)"><g><path d="M 4.15625 0.15625 C 3.425781 0.15625 2.71875 0.0546875 2.03125 -0.140625 C 1.34375 -0.335938 0.789062 -0.597656 0.375 -0.921875 L 1.109375 -2.53125 C 1.503906 -2.238281 1.972656 -2.003906 2.515625 -1.828125 C 3.066406 -1.648438 3.617188 -1.5625 4.171875 -1.5625 C 4.785156 -1.5625 5.238281 -1.648438 5.53125 -1.828125 C 5.820312 -2.015625 5.96875 -2.257812 5.96875 -2.5625 C 5.96875 -2.78125 5.878906 -2.960938 5.703125 -3.109375 C 5.535156 -3.253906 5.316406 -3.367188 5.046875 -3.453125 C 4.773438 -3.546875 4.40625 -3.648438 3.9375 -3.765625 C 3.226562 -3.929688 2.648438 -4.097656 2.203125 -4.265625 C 1.753906 -4.429688 1.367188 -4.695312 1.046875 -5.0625 C 0.722656 -5.4375 0.5625 -5.9375 0.5625 -6.5625 C 0.5625 -7.101562 0.707031 -7.59375 1 -8.03125 C 1.289062 -8.46875 1.726562 -8.8125 2.3125 -9.0625 C 2.90625 -9.320312 3.625 -9.453125 4.46875 -9.453125 C 5.0625 -9.453125 5.640625 -9.378906 6.203125 -9.234375 C 6.773438 -9.097656 7.273438 -8.898438 7.703125 -8.640625 L 7.046875 -7 C 6.179688 -7.488281 5.320312 -7.734375 4.46875 -7.734375 C 3.863281 -7.734375 3.414062 -7.632812 3.125 -7.4375 C 2.84375 -7.238281 2.703125 -6.984375 2.703125 -6.671875 C 2.703125 -6.347656 2.863281 -6.109375 3.1875 -5.953125 C 3.519531 -5.796875 4.03125 -5.644531 4.71875 -5.5 C 5.425781 -5.332031 6.003906 -5.160156 6.453125 -4.984375 C 6.898438 -4.816406 7.285156 -4.550781 7.609375 -4.1875 C 7.941406 -3.832031 8.109375 -3.34375 8.109375 -2.71875 C 8.109375 -2.1875 7.957031 -1.703125 7.65625 -1.265625 C 7.363281 -0.828125 6.921875 -0.476562 6.328125 -0.21875 C 5.734375 0.03125 5.007812 0.15625 4.15625 0.15625 Z M 4.15625 0.15625 "/></g></g></g><g fill="#cd430c" fill-opacity="1"><g transform="translate(180.16242, 285.118928)"><g><path d="M 1.109375 -9.296875 L 3.25 -9.296875 L 3.25 0 L 1.109375 0 Z M 1.109375 -9.296875 "/></g></g></g><g fill="#cd430c" fill-opacity="1"><g transform="translate(187.91324, 285.118928)"><g><path d="M 9.625 -9.296875 L 9.625 0 L 7.859375 0 L 3.234375 -5.640625 L 3.234375 0 L 1.109375 0 L 1.109375 -9.296875 L 2.875 -9.296875 L 7.5 -3.65625 L 7.5 -9.296875 Z M 9.625 -9.296875 "/></g></g></g><g fill="#cd430c" fill-opacity="1"><g transform="translate(202.031586, 285.118928)"><g><path d="M 8.296875 -1.734375 L 8.296875 0 L 1.109375 0 L 1.109375 -9.296875 L 8.125 -9.296875 L 8.125 -7.578125 L 3.234375 -7.578125 L 3.234375 -5.546875 L 7.5625 -5.546875 L 7.5625 -3.875 L 3.234375 -3.875 L 3.234375 -1.734375 Z M 8.296875 -1.734375 "/></g></g></g><g fill="#cd430c" fill-opacity="1"><g transform="translate(214.332531, 285.118928)"><g><path d="M 4.15625 0.15625 C 3.425781 0.15625 2.71875 0.0546875 2.03125 -0.140625 C 1.34375 -0.335938 0.789062 -0.597656 0.375 -0.921875 L 1.109375 -2.53125 C 1.503906 -2.238281 1.972656 -2.003906 2.515625 -1.828125 C 3.066406 -1.648438 3.617188 -1.5625 4.171875 -1.5625 C 4.785156 -1.5625 5.238281 -1.648438 5.53125 -1.828125 C 5.820312 -2.015625 5.96875 -2.257812 5.96875 -2.5625 C 5.96875 -2.78125 5.878906 -2.960938 5.703125 -3.109375 C 5.535156 -3.253906 5.316406 -3.367188 5.046875 -3.453125 C 4.773438 -3.546875 4.40625 -3.648438 3.9375 -3.765625 C 3.226562 -3.929688 2.648438 -4.097656 2.203125 -4.265625 C 1.753906 -4.429688 1.367188 -4.695312 1.046875 -5.0625 C 0.722656 -5.4375 0.5625 -5.9375 0.5625 -6.5625 C 0.5625 -7.101562 0.707031 -7.59375 1 -8.03125 C 1.289062 -8.46875 1.726562 -8.8125 2.3125 -9.0625 C 2.90625 -9.320312 3.625 -9.453125 4.46875 -9.453125 C 5.0625 -9.453125 5.640625 -9.378906 6.203125 -9.234375 C 6.773438 -9.097656 7.273438 -8.898438 7.703125 -8.640625 L 7.046875 -7 C 6.179688 -7.488281 5.320312 -7.734375 4.46875 -7.734375 C 3.863281 -7.734375 3.414062 -7.632812 3.125 -7.4375 C 2.84375 -7.238281 2.703125 -6.984375 2.703125 -6.671875 C 2.703125 -6.347656 2.863281 -6.109375 3.1875 -5.953125 C 3.519531 -5.796875 4.03125 -5.644531 4.71875 -5.5 C 5.425781 -5.332031 6.003906 -5.160156 6.453125 -4.984375 C 6.898438 -4.816406 7.285156 -4.550781 7.609375 -4.1875 C 7.941406 -3.832031 8.109375 -3.34375 8.109375 -2.71875 C 8.109375 -2.1875 7.957031 -1.703125 7.65625 -1.265625 C 7.363281 -0.828125 6.921875 -0.476562 6.328125 -0.21875 C 5.734375 0.03125 5.007812 0.15625 4.15625 0.15625 Z M 4.15625 0.15625 "/></g></g></g><g fill="#cd430c" fill-opacity="1"><g transform="translate(226.195716, 285.118928)"><g><path d="M 4.15625 0.15625 C 3.425781 0.15625 2.71875 0.0546875 2.03125 -0.140625 C 1.34375 -0.335938 0.789062 -0.597656 0.375 -0.921875 L 1.109375 -2.53125 C 1.503906 -2.238281 1.972656 -2.003906 2.515625 -1.828125 C 3.066406 -1.648438 3.617188 -1.5625 4.171875 -1.5625 C 4.785156 -1.5625 5.238281 -1.648438 5.53125 -1.828125 C 5.820312 -2.015625 5.96875 -2.257812 5.96875 -2.5625 C 5.96875 -2.78125 5.878906 -2.960938 5.703125 -3.109375 C 5.535156 -3.253906 5.316406 -3.367188 5.046875 -3.453125 C 4.773438 -3.546875 4.40625 -3.648438 3.9375 -3.765625 C 3.226562 -3.929688 2.648438 -4.097656 2.203125 -4.265625 C 1.753906 -4.429688 1.367188 -4.695312 1.046875 -5.0625 C 0.722656 -5.4375 0.5625 -5.9375 0.5625 -6.5625 C 0.5625 -7.101562 0.707031 -7.59375 1 -8.03125 C 1.289062 -8.46875 1.726562 -8.8125 2.3125 -9.0625 C 2.90625 -9.320312 3.625 -9.453125 4.46875 -9.453125 C 5.0625 -9.453125 5.640625 -9.378906 6.203125 -9.234375 C 6.773438 -9.097656 7.273438 -8.898438 7.703125 -8.640625 L 7.046875 -7 C 6.179688 -7.488281 5.320312 -7.734375 4.46875 -7.734375 C 3.863281 -7.734375 3.414062 -7.632812 3.125 -7.4375 C 2.84375 -7.238281 2.703125 -6.984375 2.703125 -6.671875 C 2.703125 -6.347656 2.863281 -6.109375 3.1875 -5.953125 C 3.519531 -5.796875 4.03125 -5.644531 4.71875 -5.5 C 5.425781 -5.332031 6.003906 -5.160156 6.453125 -4.984375 C 6.898438 -4.816406 7.285156 -4.550781 7.609375 -4.1875 C 7.941406 -3.832031 8.109375 -3.34375 8.109375 -2.71875 C 8.109375 -2.1875 7.957031 -1.703125 7.65625 -1.265625 C 7.363281 -0.828125 6.921875 -0.476562 6.328125 -0.21875 C 5.734375 0.03125 5.007812 0.15625 4.15625 0.15625 Z M 4.15625 0.15625 "/></g></g></g><g fill="#cd430c" fill-opacity="1"><g transform="translate(238.058901, 285.118928)"><g><path d="M 8.296875 -1.734375 L 8.296875 0 L 1.109375 0 L 1.109375 -9.296875 L 8.125 -9.296875 L 8.125 -7.578125 L 3.234375 -7.578125 L 3.234375 -5.546875 L 7.5625 -5.546875 L 7.5625 -3.875 L 3.234375 -3.875 L 3.234375 -1.734375 Z M 8.296875 -1.734375 "/></g></g></g><g fill="#cd430c" fill-opacity="1"><g transform="translate(250.359846, 285.118928)"><g><path d="M 4.15625 0.15625 C 3.425781 0.15625 2.71875 0.0546875 2.03125 -0.140625 C 1.34375 -0.335938 0.789062 -0.597656 0.375 -0.921875 L 1.109375 -2.53125 C 1.503906 -2.238281 1.972656 -2.003906 2.515625 -1.828125 C 3.066406 -1.648438 3.617188 -1.5625 4.171875 -1.5625 C 4.785156 -1.5625 5.238281 -1.648438 5.53125 -1.828125 C 5.820312 -2.015625 5.96875 -2.257812 5.96875 -2.5625 C 5.96875 -2.78125 5.878906 -2.960938 5.703125 -3.109375 C 5.535156 -3.253906 5.316406 -3.367188 5.046875 -3.453125 C 4.773438 -3.546875 4.40625 -3.648438 3.9375 -3.765625 C 3.226562 -3.929688 2.648438 -4.097656 2.203125 -4.265625 C 1.753906 -4.429688 1.367188 -4.695312 1.046875 -5.0625 C 0.722656 -5.4375 0.5625 -5.9375 0.5625 -6.5625 C 0.5625 -7.101562 0.707031 -7.59375 1 -8.03125 C 1.289062 -8.46875 1.726562 -8.8125 2.3125 -9.0625 C 2.90625 -9.320312 3.625 -9.453125 4.46875 -9.453125 C 5.0625 -9.453125 5.640625 -9.378906 6.203125 -9.234375 C 6.773438 -9.097656 7.273438 -8.898438 7.703125 -8.640625 L 7.046875 -7 C 6.179688 -7.488281 5.320312 -7.734375 4.46875 -7.734375 C 3.863281 -7.734375 3.414062 -7.632812 3.125 -7.4375 C 2.84375 -7.238281 2.703125 -6.984375 2.703125 -6.671875 C 2.703125 -6.347656 2.863281 -6.109375 3.1875 -5.953125 C 3.519531 -5.796875 4.03125 -5.644531 4.71875 -5.5 C 5.425781 -5.332031 6.003906 -5.160156 6.453125 -4.984375 C 6.898438 -4.816406 7.285156 -4.550781 7.609375 -4.1875 C 7.941406 -3.832031 8.109375 -3.34375 8.109375 -2.71875 C 8.109375 -2.1875 7.957031 -1.703125 7.65625 -1.265625 C 7.363281 -0.828125 6.921875 -0.476562 6.328125 -0.21875 C 5.734375 0.03125 5.007812 0.15625 4.15625 0.15625 Z M 4.15625 0.15625 "/></g></g></g><g fill="#cd430c" fill-opacity="1"><g transform="translate(262.223031, 285.118928)"><g/></g></g><g fill="#cd430c" fill-opacity="1"><g transform="translate(269.376904, 285.118928)"><g><path d="M 3.03125 -7.546875 L 0.046875 -7.546875 L 0.046875 -9.296875 L 8.15625 -9.296875 L 8.15625 -7.546875 L 5.1875 -7.546875 L 5.1875 0 L 3.03125 0 Z M 3.03125 -7.546875 "/></g></g></g><g fill="#cd430c" fill-opacity="1"><g transform="translate(280.974769, 285.118928)"><g><path d="M 5.609375 0.15625 C 4.640625 0.15625 3.765625 -0.0507812 2.984375 -0.46875 C 2.210938 -0.882812 1.609375 -1.457031 1.171875 -2.1875 C 0.734375 -2.914062 0.515625 -3.738281 0.515625 -4.65625 C 0.515625 -5.5625 0.734375 -6.378906 1.171875 -7.109375 C 1.609375 -7.835938 2.210938 -8.410156 2.984375 -8.828125 C 3.765625 -9.242188 4.640625 -9.453125 5.609375 -9.453125 C 6.566406 -9.453125 7.429688 -9.242188 8.203125 -8.828125 C 8.972656 -8.410156 9.578125 -7.835938 10.015625 -7.109375 C 10.460938 -6.378906 10.6875 -5.5625 10.6875 -4.65625 C 10.6875 -3.738281 10.460938 -2.914062 10.015625 -2.1875 C 9.578125 -1.457031 8.972656 -0.882812 8.203125 -0.46875 C 7.429688 -0.0507812 6.566406 0.15625 5.609375 0.15625 Z M 5.609375 -1.671875 C 6.148438 -1.671875 6.640625 -1.796875 7.078125 -2.046875 C 7.523438 -2.304688 7.875 -2.660156 8.125 -3.109375 C 8.382812 -3.554688 8.515625 -4.070312 8.515625 -4.65625 C 8.515625 -5.226562 8.382812 -5.738281 8.125 -6.1875 C 7.875 -6.632812 7.523438 -6.984375 7.078125 -7.234375 C 6.640625 -7.492188 6.148438 -7.625 5.609375 -7.625 C 5.054688 -7.625 4.554688 -7.492188 4.109375 -7.234375 C 3.671875 -6.984375 3.328125 -6.632812 3.078125 -6.1875 C 2.828125 -5.738281 2.703125 -5.226562 2.703125 -4.65625 C 2.703125 -4.070312 2.828125 -3.554688 3.078125 -3.109375 C 3.328125 -2.660156 3.671875 -2.304688 4.109375 -2.046875 C 4.554688 -1.796875 5.054688 -1.671875 5.609375 -1.671875 Z M 5.609375 -1.671875 "/></g></g></g><g fill="#cd430c" fill-opacity="1"><g transform="translate(118.33407, 303.118926)"><g><path d="M 7.390625 -4.796875 L 9.34375 -4.796875 L 9.34375 -1.015625 C 8.84375 -0.640625 8.257812 -0.347656 7.59375 -0.140625 C 6.925781 0.0546875 6.257812 0.15625 5.59375 0.15625 C 4.625 0.15625 3.753906 -0.046875 2.984375 -0.453125 C 2.210938 -0.867188 1.609375 -1.441406 1.171875 -2.171875 C 0.734375 -2.898438 0.515625 -3.726562 0.515625 -4.65625 C 0.515625 -5.570312 0.734375 -6.394531 1.171875 -7.125 C 1.609375 -7.851562 2.21875 -8.421875 3 -8.828125 C 3.78125 -9.242188 4.65625 -9.453125 5.625 -9.453125 C 6.445312 -9.453125 7.1875 -9.316406 7.84375 -9.046875 C 8.507812 -8.773438 9.066406 -8.375 9.515625 -7.84375 L 8.140625 -6.578125 C 7.472656 -7.273438 6.671875 -7.625 5.734375 -7.625 C 5.140625 -7.625 4.613281 -7.5 4.15625 -7.25 C 3.695312 -7 3.335938 -6.648438 3.078125 -6.203125 C 2.828125 -5.753906 2.703125 -5.238281 2.703125 -4.65625 C 2.703125 -4.070312 2.828125 -3.554688 3.078125 -3.109375 C 3.335938 -2.660156 3.691406 -2.304688 4.140625 -2.046875 C 4.597656 -1.796875 5.125 -1.671875 5.71875 -1.671875 C 6.332031 -1.671875 6.890625 -1.804688 7.390625 -2.078125 Z M 7.390625 -4.796875 "/></g></g></g><g fill="#cd430c" fill-opacity="1"><g transform="translate(131.961591, 303.118926)"><g><path d="M 7.03125 0 L 5.234375 -2.59375 L 3.25 -2.59375 L 3.25 0 L 1.109375 0 L 1.109375 -9.296875 L 5.125 -9.296875 C 5.945312 -9.296875 6.660156 -9.15625 7.265625 -8.875 C 7.878906 -8.601562 8.347656 -8.210938 8.671875 -7.703125 C 9.003906 -7.203125 9.171875 -6.609375 9.171875 -5.921875 C 9.171875 -5.234375 9.003906 -4.640625 8.671875 -4.140625 C 8.335938 -3.640625 7.863281 -3.253906 7.25 -2.984375 L 9.34375 0 Z M 6.984375 -5.921875 C 6.984375 -6.441406 6.816406 -6.84375 6.484375 -7.125 C 6.148438 -7.40625 5.65625 -7.546875 5 -7.546875 L 3.25 -7.546875 L 3.25 -4.296875 L 5 -4.296875 C 5.65625 -4.296875 6.148438 -4.4375 6.484375 -4.71875 C 6.816406 -5.007812 6.984375 -5.410156 6.984375 -5.921875 Z M 6.984375 -5.921875 "/></g></g></g><g fill="#cd430c" fill-opacity="1"><g transform="translate(145.111538, 303.118926)"><g><path d="M 5.609375 0.15625 C 4.640625 0.15625 3.765625 -0.0507812 2.984375 -0.46875 C 2.210938 -0.882812 1.609375 -1.457031 1.171875 -2.1875 C 0.734375 -2.914062 0.515625 -3.738281 0.515625 -4.65625 C 0.515625 -5.5625 0.734375 -6.378906 1.171875 -7.109375 C 1.609375 -7.835938 2.210938 -8.410156 2.984375 -8.828125 C 3.765625 -9.242188 4.640625 -9.453125 5.609375 -9.453125 C 6.566406 -9.453125 7.429688 -9.242188 8.203125 -8.828125 C 8.972656 -8.410156 9.578125 -7.835938 10.015625 -7.109375 C 10.460938 -6.378906 10.6875 -5.5625 10.6875 -4.65625 C 10.6875 -3.738281 10.460938 -2.914062 10.015625 -2.1875 C 9.578125 -1.457031 8.972656 -0.882812 8.203125 -0.46875 C 7.429688 -0.0507812 6.566406 0.15625 5.609375 0.15625 Z M 5.609375 -1.671875 C 6.148438 -1.671875 6.640625 -1.796875 7.078125 -2.046875 C 7.523438 -2.304688 7.875 -2.660156 8.125 -3.109375 C 8.382812 -3.554688 8.515625 -4.070312 8.515625 -4.65625 C 8.515625 -5.226562 8.382812 -5.738281 8.125 -6.1875 C 7.875 -6.632812 7.523438 -6.984375 7.078125 -7.234375 C 6.640625 -7.492188 6.148438 -7.625 5.609375 -7.625 C 5.054688 -7.625 4.554688 -7.492188 4.109375 -7.234375 C 3.671875 -6.984375 3.328125 -6.632812 3.078125 -6.1875 C 2.828125 -5.738281 2.703125 -5.226562 2.703125 -4.65625 C 2.703125 -4.070312 2.828125 -3.554688 3.078125 -3.109375 C 3.328125 -2.660156 3.671875 -2.304688 4.109375 -2.046875 C 4.554688 -1.796875 5.054688 -1.671875 5.609375 -1.671875 Z M 5.609375 -1.671875 "/></g></g></g><g fill="#cd430c" fill-opacity="1"><g transform="translate(159.707447, 303.118926)"><g><path d="M 15.15625 -9.296875 L 12.109375 0 L 9.796875 0 L 7.75 -6.296875 L 5.640625 0 L 3.34375 0 L 0.296875 -9.296875 L 2.53125 -9.296875 L 4.625 -2.765625 L 6.8125 -9.296875 L 8.8125 -9.296875 L 10.9375 -2.703125 L 13.09375 -9.296875 Z M 15.15625 -9.296875 "/></g></g></g><g fill="#cd430c" fill-opacity="1"><g transform="translate(178.535105, 303.118926)"><g/></g></g><g fill="#cd430c" fill-opacity="1"><g transform="translate(185.688978, 303.118926)"><g><path d="M 3.25 -7.578125 L 3.25 -5.109375 L 7.5625 -5.109375 L 7.5625 -3.390625 L 3.25 -3.390625 L 3.25 0 L 1.109375 0 L 1.109375 -9.296875 L 8.125 -9.296875 L 8.125 -7.578125 Z M 3.25 -7.578125 "/></g></g></g><g fill="#cd430c" fill-opacity="1"><g transform="translate(197.565427, 303.118926)"><g><path d="M 7.21875 -2 L 2.90625 -2 L 2.078125 0 L -0.125 0 L 4.03125 -9.296875 L 6.15625 -9.296875 L 10.3125 0 L 8.046875 0 Z M 6.546875 -3.625 L 5.078125 -7.1875 L 3.59375 -3.625 Z M 6.546875 -3.625 "/></g></g></g><g fill="#cd430c" fill-opacity="1"><g transform="translate(211.126617, 303.118926)"><g><path d="M 4.15625 0.15625 C 3.425781 0.15625 2.71875 0.0546875 2.03125 -0.140625 C 1.34375 -0.335938 0.789062 -0.597656 0.375 -0.921875 L 1.109375 -2.53125 C 1.503906 -2.238281 1.972656 -2.003906 2.515625 -1.828125 C 3.066406 -1.648438 3.617188 -1.5625 4.171875 -1.5625 C 4.785156 -1.5625 5.238281 -1.648438 5.53125 -1.828125 C 5.820312 -2.015625 5.96875 -2.257812 5.96875 -2.5625 C 5.96875 -2.78125 5.878906 -2.960938 5.703125 -3.109375 C 5.535156 -3.253906 5.316406 -3.367188 5.046875 -3.453125 C 4.773438 -3.546875 4.40625 -3.648438 3.9375 -3.765625 C 3.226562 -3.929688 2.648438 -4.097656 2.203125 -4.265625 C 1.753906 -4.429688 1.367188 -4.695312 1.046875 -5.0625 C 0.722656 -5.4375 0.5625 -5.9375 0.5625 -6.5625 C 0.5625 -7.101562 0.707031 -7.59375 1 -8.03125 C 1.289062 -8.46875 1.726562 -8.8125 2.3125 -9.0625 C 2.90625 -9.320312 3.625 -9.453125 4.46875 -9.453125 C 5.0625 -9.453125 5.640625 -9.378906 6.203125 -9.234375 C 6.773438 -9.097656 7.273438 -8.898438 7.703125 -8.640625 L 7.046875 -7 C 6.179688 -7.488281 5.320312 -7.734375 4.46875 -7.734375 C 3.863281 -7.734375 3.414062 -7.632812 3.125 -7.4375 C 2.84375 -7.238281 2.703125 -6.984375 2.703125 -6.671875 C 2.703125 -6.347656 2.863281 -6.109375 3.1875 -5.953125 C 3.519531 -5.796875 4.03125 -5.644531 4.71875 -5.5 C 5.425781 -5.332031 6.003906 -5.160156 6.453125 -4.984375 C 6.898438 -4.816406 7.285156 -4.550781 7.609375 -4.1875 C 7.941406 -3.832031 8.109375 -3.34375 8.109375 -2.71875 C 8.109375 -2.1875 7.957031 -1.703125 7.65625 -1.265625 C 7.363281 -0.828125 6.921875 -0.476562 6.328125 -0.21875 C 5.734375 0.03125 5.007812 0.15625 4.15625 0.15625 Z M 4.15625 0.15625 "/></g></g></g><g fill="#cd430c" fill-opacity="1"><g transform="translate(222.989803, 303.118926)"><g><path d="M 3.03125 -7.546875 L 0.046875 -7.546875 L 0.046875 -9.296875 L 8.15625 -9.296875 L 8.15625 -7.546875 L 5.1875 -7.546875 L 5.1875 0 L 3.03125 0 Z M 3.03125 -7.546875 "/></g></g></g><g fill="#cd430c" fill-opacity="1"><g transform="translate(234.587668, 303.118926)"><g><path d="M 8.296875 -1.734375 L 8.296875 0 L 1.109375 0 L 1.109375 -9.296875 L 8.125 -9.296875 L 8.125 -7.578125 L 3.234375 -7.578125 L 3.234375 -5.546875 L 7.5625 -5.546875 L 7.5625 -3.875 L 3.234375 -3.875 L 3.234375 -1.734375 Z M 8.296875 -1.734375 "/></g></g></g><g fill="#cd430c" fill-opacity="1"><g transform="translate(246.888612, 303.118926)"><g><path d="M 7.03125 0 L 5.234375 -2.59375 L 3.25 -2.59375 L 3.25 0 L 1.109375 0 L 1.109375 -9.296875 L 5.125 -9.296875 C 5.945312 -9.296875 6.660156 -9.15625 7.265625 -8.875 C 7.878906 -8.601562 8.347656 -8.210938 8.671875 -7.703125 C 9.003906 -7.203125 9.171875 -6.609375 9.171875 -5.921875 C 9.171875 -5.234375 9.003906 -4.640625 8.671875 -4.140625 C 8.335938 -3.640625 7.863281 -3.253906 7.25 -2.984375 L 9.34375 0 Z M 6.984375 -5.921875 C 6.984375 -6.441406 6.816406 -6.84375 6.484375 -7.125 C 6.148438 -7.40625 5.65625 -7.546875 5 -7.546875 L 3.25 -7.546875 L 3.25 -4.296875 L 5 -4.296875 C 5.65625 -4.296875 6.148438 -4.4375 6.484375 -4.71875 C 6.816406 -5.007812 6.984375 -5.410156 6.984375 -5.921875 Z M 6.984375 -5.921875 "/></g></g></g></svg>